<svg width="400" height="300" viewBox="0 0 400 300" fill="none" xmlns="http://www.w3.org/2000/svg">
<g clip-path="url(#clip0_125_426)">
<path d="M400 0H0V300H400V0Z" fill="#F5F5F5"/>
<path d="M120 120C120 80 280 80 280 120" stroke="#333333" stroke-width="8" stroke-linecap="round"/>
<path d="M120 200C142.091 200 160 182.091 160 160C160 137.909 142.091 120 120 120C97.9086 120 80 137.909 80 160C80 182.091 97.9086 200 120 200Z" fill="#4A90E2" stroke="#333333" stroke-width="3"/>
<path d="M120 185C133.807 185 145 173.807 145 160C145 146.193 133.807 135 120 135C106.193 135 95 146.193 95 160C95 173.807 106.193 185 120 185Z" fill="#333333"/>
<path d="M120 175C128.284 175 135 168.284 135 160C135 151.716 128.284 145 120 145C111.716 145 105 151.716 105 160C105 168.284 111.716 175 120 175Z" fill="#666666"/>
<path d="M280 200C302.091 200 320 182.091 320 160C320 137.909 302.091 120 280 120C257.909 120 240 137.909 240 160C240 182.091 257.909 200 280 200Z" fill="#4A90E2" stroke="#333333" stroke-width="3"/>
<path d="M280 185C293.807 185 305 173.807 305 160C305 146.193 293.807 135 280 135C266.193 135 255 146.193 255 160C255 173.807 266.193 185 280 185Z" fill="#333333"/>
<path d="M280 175C288.284 175 295 168.284 295 160C295 151.716 288.284 145 280 145C271.716 145 265 151.716 265 160C265 168.284 271.716 175 280 175Z" fill="#666666"/>
<path d="M120 120V160" stroke="#333333" stroke-width="5"/>
<path d="M280 120V160" stroke="#333333" stroke-width="5"/>
</g>
<defs>
<clipPath id="clip0_125_426">
<rect width="400" height="300" fill="white"/>
</clipPath>
</defs>
</svg>
