<svg width="400" height="300" viewBox="0 0 400 300" fill="none" xmlns="http://www.w3.org/2000/svg">
<g clip-path="url(#clip0_125_424)">
<path d="M400 0H0V300H400V0Z" fill="#F5F5F5"/>
<path d="M200 70V220" stroke="#333333" stroke-width="4"/>
<path d="M180 70H220V170H180V70Z" fill="#FF6B6B" stroke="#333333" stroke-width="2"/>
<path d="M180 90H220" stroke="#333333"/>
<path d="M180 110H220" stroke="#333333"/>
<path d="M180 130H220" stroke="#333333"/>
<path d="M180 150H220" stroke="#333333"/>
<path d="M200 220C200 220 220 220 220 235C220 250 200 250 200 235V220Z" fill="#333333" stroke="black"/>
<path d="M120 120C173.333 93.3333 226.667 93.3333 280 120" stroke="#FF6B6B" stroke-width="2" stroke-dasharray="5 5"/>
<path d="M120 120C126.667 160 153.333 176.667 200 170" stroke="#FF6B6B" stroke-width="2" stroke-dasharray="5 5"/>
<path d="M280 120C273.333 160 246.667 176.667 200 170" stroke="#FF6B6B" stroke-width="2" stroke-dasharray="5 5"/>
</g>
<defs>
<clipPath id="clip0_125_424">
<rect width="400" height="300" fill="white"/>
</clipPath>
</defs>
</svg>
